<?xml version="1.0" encoding="UTF-8" standalone="no"?> <svg id="Layer_1" data-name="Layer 1" xmlns="http://www.w3.org/2000/svg" viewBox="0 0 128 128"><defs><style>.cls-1{fill:#1d75b8;}.cls-2{fill:#2d3e50;}</style></defs><title>v</title><path class="cls-1" d="M13.07993,84.43583a2.56971,2.56971,0,0,0-2.737-2.39086l-5.39315.364a2.56977,2.56977,0,0,0,.34614,5.12787l5.39315-.364A2.5697,2.5697,0,0,0,13.07993,84.43583Z"/><path class="cls-1" d="M30.14672,98.98962a2.56976,2.56976,0,0,0-2.39091,2.737l.364,5.393a2.56977,2.56977,0,1,0,5.12787-.34614l-.364-5.393A2.56973,2.56973,0,0,0,30.14672,98.98962Z"/><path class="cls-1" d="M14.97319,95.49215,11.417,99.563a2.56979,2.56979,0,0,0,3.87074,3.38124l3.55612-4.07092a2.56976,2.56976,0,0,0-3.87069-3.38119Z"/><circle class="cls-1" cx="76.37297" cy="95.76449" r="3.26528"/><path class="cls-1" d="M125.447,53.33476V48.3979h-9.77832a33.56824,33.56824,0,0,0-17.45864,4.89281L74.68489,67.58776,59.70568,73.4195A11.11,11.11,0,0,0,50.6169,84.34217V96.06443a2.45913,2.45913,0,0,0,2.46474,2.4574H63.64488a12.69676,12.69676,0,0,0,24.78686,0H125.447V67.58776h-.21272v-14.253ZM76.042,103.532a7.76836,7.76836,0,1,1,0-15.53672c.11,0,.22006,0,.33006.0073A7.76838,7.76838,0,0,1,76.042,103.532ZM87.1627,67.58776V65.7832l13.61481-8.27454a28.66773,28.66773,0,0,1,14.89119-4.17389h5.09823v14.253Zm31.719,19.10914H107.25482a2.46109,2.46109,0,1,1,0-4.92218h11.62685a2.46109,2.46109,0,1,1,0,4.92218Z"/><path class="cls-2" d="M32.804,61.91259l-2.16727-1.12312-.30284,1.46832-1.48771,7.258-.57721,3.05005-.11784.6497a2.395,2.395,0,0,0-.01683.82L28.299,75.2058l.40175,2.8137,1.237,8.70019a3.31121,3.31121,0,0,0,2.77918,2.78652,2.98352,2.98352,0,0,0,.77676.022l.17269-.021a3.29658,3.29658,0,0,0,2.81285-3.4616l-.07987-1.31211-.15388-2.39843-.50329-8.074,2.65955-6.39323,1.0441-2.51551-.44446-.23053Z"/><path class="cls-2" d="M52.8336,52.9177c.55035-.93615,1.16454-1.88753,1.82368-2.82968.10562-.15165.21128-.30329.33132-.45673a32.715,32.715,0,0,1,2.18209-2.70539l.29452.43877.0081.00631,1.95885,2.88659.3465.50544.65892.97112.50025.80806.2086.33239,1.73347,7.38347a2.352,2.352,0,0,0,2.76579,1.83877,2.30145,2.30145,0,0,0,1.11475-.55961A2.35625,2.35625,0,0,0,67.51355,59.51l-.18263-1.49662-.95675-7.66084-1.10271-2.33378-.51117-1.07692c-.03756-.0685-.067-.1306-.10459-.19906-.01791-.027-.02776-.04768-.04567-.07473-.20815-.44929-.4227-.89053-.62279-1.33351-.43425-.92559-.87481-1.84311-1.30105-2.7623a13.91362,13.91362,0,0,0-1.7293-2.98039.30174.30174,0,0,0-.06-.073c-.17206-.21272-.3567-.40922-.5413-.60582A15.96236,15.96236,0,0,0,54.892,35.31481a.41241.41241,0,0,0-.42364.059l-3.74336,3.137a.41221.41221,0,0,1-.68162-.26L49.546,33.99545a.38821.38821,0,0,0-.3353-.35348,16.96988,16.96988,0,0,0-5.12406-.03922q-4.27065.64157-8.53136,1.304c-.12953.0158-.251.03788-.38052.05373L26.485,32.99007A2.50612,2.50612,0,0,0,24.117,37.16419a2.67233,2.67233,0,0,0,1.08149.664l5.61284,1.71041,4.43872,1.36445a.92618.92618,0,0,0,.24706.05015.365.365,0,0,0,.098.02463c.04491.00909.09617.01016.14108.01925l.67083-.00882.02879-.00349,3.84669-.07508.39391-.0043c-.41594.78111-.93047,1.77134-1.36633,2.62785-.19619.36718-.37515.69577-.5289.992-.35165.649-.69528,1.30445-1.02453,1.958-.16172.28995-.30916.5782-.46286.87441q-.32324.31323-.62234.64558l-2.1542-.65735-.62968-.19333-3.75245-1.1268a4.12585,4.12585,0,0,0-2.84361.15711l-1.19373.51081-3.41558,1.45382-1.44235.62874L9.53075,53.842a4.07729,4.07729,0,0,0-2.187,2.24593A4.06791,4.06791,0,0,0,8.613,60.80415a4.10336,4.10336,0,0,0,3.87705.65149l6.19556-2.31153,5.35039-1.9966,2.40331-.8921,2.15764-.81106.29805.16808c.42189.22606.82946.45386,1.25135.67987,1.27562.69877,2.5576,1.38952,3.8252,2.08193.29631.1537.58616.31551.87611.47728.2415.12389.46864.24952.70387.38155a.06127.06127,0,0,1,.03859.01715c.01616.01263.03058.01088.04674.02351,1.14184.62019,2.28547,1.25476,3.432,1.85243.29622.1537.58442.3011.8565.43591a10.0956,10.0956,0,0,0,2.05587.74954,8.41879,8.41879,0,0,0,2.18966.22942,6.57372,6.57372,0,0,0,3.76355-1.11645,3.71732,3.71732,0,0,0,.4805-.43107A6.33386,6.33386,0,0,0,49.62165,59.152c.25789-.57918.66608-1.48346,1.21325-2.5653C51.374,55.49845,52.04565,54.24074,52.8336,52.9177Z"/><path class="cls-2" d="M53.09391,31.89014A5.04416,5.04416,0,0,0,59.325,30.34839l1.31789-1.76754.65355-.86841.445-.602a5.32127,5.32127,0,0,0-2.139-7.71376l-.06273-.03613-.045-.00918-.31063-.152-.41039-.19091a5.2787,5.2787,0,0,0-5.07915.26931l-.01437.0017a5.28488,5.28488,0,0,0-2.25543,2.88233l-1.02749,3.90826A5.04057,5.04057,0,0,0,53.09391,31.89014Z"/></svg>